0
SECTION
2
HEADER
9
$INSUNITS
70
4
9
$ACADVER
1
AC1014
9
$HANDSEED
5
FFFF
0
ENDSEC
0
SECTION
2
TABLES
0
TABLE
2
VPORT
5
8
100
AcDbSymbolTable
0
ENDTAB
0
TABLE
2
LTYPE
5
5
100
AcDbSymbolTable
0
LTYPE
5
14
100
AcDbSymbolTableRecord
100
AcDbLinetypeTableRecord
2
BYBLOCK
70
0
0
LTYPE
5
15
100
AcDbSymbolTableRecord
100
AcDbLinetypeTableRecord
2
BYLAYER
70
0
0
ENDTAB
0
TABLE
2
LAYER
5
2
100
AcDbSymbolTable
70
2
0
LAYER
5
50
100
AcDbSymbolTableRecord
100
AcDbLayerTableRecord
2
0
70
0
6
CONTINUOUS
0
ENDTAB
0
TABLE
2
STYLE
5
3
100
AcDbSymbolTable
70
1
0
STYLE
5
11
100
AcDbSymbolTableRecord
100
AcDbTextStyleTableRecord
2
STANDARD
70
0
0
ENDTAB
0
TABLE
2
VIEW
5
6
100
AcDbSymbolTable
70
0
0
ENDTAB
0
TABLE
2
UCS
5
7
100
AcDbSymbolTable
70
0
0
ENDTAB
0
TABLE
2
APPID
5
9
100
AcDbSymbolTable
70
2
0
APPID
5
12
100
AcDbSymbolTableRecord
100
AcDbRegAppTableRecord
2
ACAD
70
0
0
ENDTAB
0
TABLE
2
DIMSTYLE
5
A
100
AcDbSymbolTable
70
1
0
ENDTAB
0
TABLE
2
BLOCK_RECORD
5
1
100
AcDbSymbolTable
70
1
0
BLOCK_RECORD
5
1F
100
AcDbSymbolTableRecord
100
AcDbBlockTableRecord
2
*MODEL_SPACE
0
BLOCK_RECORD
5
1B
100
AcDbSymbolTableRecord
100
AcDbBlockTableRecord
2
*PAPER_SPACE
0
ENDTAB
0
ENDSEC
0
SECTION
2
BLOCKS
0
BLOCK
5
20
100
AcDbEntity
100
AcDbBlockBegin
2
*MODEL_SPACE
0
ENDBLK
5
21
100
AcDbEntity
100
AcDbBlockEnd
0
BLOCK
5
1C
100
AcDbEntity
100
AcDbBlockBegin
2
*PAPER_SPACE
0
ENDBLK
5
1D
100
AcDbEntity
100
AcDbBlockEnd
0
ENDSEC
0
SECTION
2
ENTITIES
0
CIRCLE
5
100
100
AcDbEntity
8
0
100
AcDbCircle
10
-23.283395719569
20
-114.79619299224383
30
0
40
0.99999999999999645
210
0
220
0
230
1
0
CIRCLE
5
101
100
AcDbEntity
8
0
100
AcDbCircle
10
-18.28226394943119
20
-109.20703554073845
30
0
40
0.99999999999999645
210
1.233316371720999e-44
220
3.1272624078843054e-75
230
1
0
LINE
5
102
100
AcDbEntity
8
0
100
AcDbLine
10
82.531376233542076
20
-21.07700726445486
30
0
11
100.22764449254156
21
-6.1981662142982863
31
0
0
ARC
5
103
100
AcDbEntity
8
0
100
AcDbCircle
10
97.804507369759364
20
-3.0156504666240131
30
-1.2611686178923354e-43
40
3.9999999999999907
210
2.5153298657847986e-29
220
1.9151481585849284e-29
230
1
100
AcDbArc
50
-52.714700737917887
51
127.10347490349241
0
LINE
5
104
100
AcDbEntity
8
0
100
AcDbLine
10
95.391481934117465
20
0.17453890815378695
30
-7.5730646901212066e-29
11
76.300524561727286
21
-12.864043799972951
31
2.5243548967072378e-28
0
SPLINE
5
105
100
AcDbEntity
8
0
100
AcDbSpline
70
0
71
3
72
10
73
6
74
0
42
0.000000001
43
0.0000000001
44
0.0000000001
40
0
40
0
40
0
40
0
40
0.51757446867338575
40
0.51757446867338575
40
1.0351489373467722
40
1.0351489373467722
40
1.0351489373467722
40
1.0351489373467722
10
67.210954896336276
20
-17.773127517661749
30
0
10
68.805875791167693
20
-17.115321474369583
30
-4.4408920985006262e-15
10
70.365500161134918
20
-16.374996630447477
30
0
10
73.40151061370166
20
-14.735311801783235
30
0
10
74.875842621459071
20
-13.837061179280827
30
0
10
76.300524561727272
20
-12.864043799972951
30
0
0
SPLINE
5
106
100
AcDbEntity
8
0
100
AcDbSpline
70
0
71
3
72
12
73
8
74
0
42
0.000000001
43
0.0000000001
44
0.0000000001
40
-0.95488422177514942
40
-0.95488422177514942
40
-0.95488422177514942
40
-0.95488422177514942
40
-0.94757744352159889
40
-0.71023817644021503
40
-0.47289890935883205
40
-0.23555964227744908
40
-0.041489406513365495
40
-0.041489406513365495
40
-0.041489406513365495
40
-0.041489406513365495
10
64.46246776440212
20
-19.872202113234895
30
4.4408920985006262e-15
10
64.468168326652659
20
-19.864819451861248
30
0
10
64.659550379622331
20
-19.618030626762057
30
4.4408920985006262e-15
10
65.0705899225688
20
-19.158297863405114
30
0
10
65.764073741583616
20
-18.567514446555172
30
0
10
66.484474930351467
20
-18.105820717873236
30
0
10
66.981930983936067
20
-17.867585690555142
30
0
10
67.210954896336276
20
-17.773127517661749
30
0
0
SPLINE
5
107
100
AcDbEntity
8
0
100
AcDbSpline
70
0
71
3
72
10
73
6
74
0
42
0.000000001
43
0.0000000001
44
0.0000000001
40
0
40
0
40
0
40
0
40
0.47619748099352793
40
0.47619748099352793
40
0.95239496198705609
40
0.95239496198705609
40
0.95239496198705609
40
0.95239496198705609
10
57.959277489175506
20
-26.807839901359998
30
0
10
59.150682128461185
20
-25.758956952702746
30
0
10
60.291205911066122
20
-24.653655217271798
30
0
10
62.462662540122167
20
-22.337801610907633
30
0
10
63.492351784666774
20
-21.128576038608028
30
-4.4408920985006262e-15
10
64.462467764402106
20
-19.872202113234891
30
4.4408920985006262e-15
0
SPLINE
5
108
100
AcDbEntity
8
0
100
AcDbSpline
70
0
71
3
72
10
73
6
74
0
42
0.000000001
43
0.0000000001
44
0.0000000001
40
-11.697464018611134
40
-11.697464018611134
40
-11.697464018611134
40
-11.697464018611134
40
-7.1495183088061562
40
-7.1495183088061562
40
0
40
0
40
0
40
0
10
57.959277489175527
20
-26.807839901359994
30
0
10
46.054453031013615
20
-37.288550626484046
30
0
10
32.159401651811102
20
-50.725071701059989
30
0
10
5.6588538306927081
20
-77.148666681948086
30
0
10
-10.547971128524543
20
-94.306617460653513
30
0
10
-26.121886302420016
20
-112.34558669765759
30
0
0
ARC
5
109
100
AcDbEntity
8
0
100
AcDbCircle
10
-23.283395719569
20
-114.79619299224383
30
0
40
3.7499999999999316
210
-8.2482662476990062e-30
220
-9.5538096513763188e-30
230
1
100
AcDbArc
50
139.19436794275492
51
319.19437367000285
0
SPLINE
5
110
100
AcDbEntity
8
0
100
AcDbSpline
70
0
71
3
72
10
73
6
74
0
42
0.000000001
43
0.0000000001
44
0.0000000001
40
-7.3290450454830527
40
-7.3290450454830527
40
-7.3290450454830527
40
-7.3290450454830527
40
-4.1199121427004295
40
-4.1199121427004295
40
-0.86297470727727432
40
-0.86297470727727432
40
-0.86297470727727432
40
-0.86297470727727432
10
-20.444904888047567
20
-117.24679899879996
30
0
10
-9.5282533552150763
20
-104.602253885088
30
0
10
6.6175779255139631
20
-88.183821294431155
30
0
10
40.543677238319624
20
-56.212835348442894
30
4.4408920985006262e-15
10
54.177981798539065
20
-44.577390572181422
30
-4.4408920985006262e-15
10
64.401958892673989
20
-36.126464021515453
30
0
0
SPLINE
5
111
100
AcDbEntity
8
0
100
AcDbSpline
70
0
71
3
72
10
73
6
74
0
42
0.000000001
43
0.0000000001
44
0.0000000001
40
0
40
0
40
0
40
0
40
0.52719791950694228
40
0.52719791950694228
40
1.0543958390138846
40
1.0543958390138846
40
1.0543958390138846
40
1.0543958390138846
10
73.175293191029937
20
-30.318145520272704
30
0
10
71.615621104707358
20
-31.127848585295137
30
0
10
70.099945745169649
20
-32.019622046317885
30
0
10
67.169338051100581
20
-33.959808332452624
30
0
10
65.756462910005695
20
-35.006859208470765
30
0
10
64.401958892673989
20
-36.126464021515453
30
0
0
SPLINE
5
112
100
AcDbEntity
8
0
100
AcDbSpline
70
0
71
3
72
12
73
8
74
0
42
0.000000001
43
0.0000000001
44
0.0000000001
40
0.049980418484534335
40
0.049980418484534335
40
0.049980418484534335
40
0.049980418484534335
40
0.06865365066145257
40
0.31030604574818987
40
0.55195844083492718
40
0.79361083592166382
40
0.95109077732714853
40
0.95109077732714853
40
0.95109077732714853
40
0.95109077732714853
10
75.3650814055854
20
-28.500239979656396
30
0
10
75.35287463353049
20
-28.515842088464979
30
0
10
75.181734932319003
20
-28.732598889697446
30
0
10
74.825951809317971
20
-29.130023652899531
30
0
10
74.249771102021043
20
-29.641355967098505
30
4.4408920985006262e-15
10
73.692073962722972
20
-30.032013068464899
30
0
10
73.323568470687448
20
-30.241168475252401
30
0
10
73.175293191029937
20
-30.318145520272694
30
0
0
SPLINE
5
113
100
AcDbEntity
8
0
100
AcDbSpline
70
0
71
3
72
10
73
6
74
0
42
0.000000001
43
0.0000000001
44
0.0000000001
40
0
40
0
40
0
40
0
40
0.51694295224029074
40
0.51694295224029074
40
1.033885904480581
40
1.033885904480581
40
1.033885904480581
40
1.033885904480581
10
82.531376233542076
20
-21.07700726445486
30
0
10
81.212470252890881
20
-22.18592990051572
30
0
10
79.952067467736498
20
-23.36262663016322
30
0
10
77.558462582007678
20
-25.842051007973051
30
0
10
76.426875973508729
20
-27.143105242758779
30
-4.4408920985006262e-15
10
75.365081405585371
20
-28.500239979656374
30
0
0
CIRCLE
5
114
100
AcDbEntity
8
0
100
AcDbCircle
10
97.804507369759364
20
-3.0156504666240131
30
-1.2611686178923354e-43
40
1.5000000000000036
210
1.3130298349810973e-44
220
3.5445778545140712e-75
230
1
0
CIRCLE
5
115
100
AcDbEntity
8
0
100
AcDbCircle
10
69.923882515381109
20
-24.173881809883522
30
0
40
1.9999999999999929
210
8.4724158643666567e-45
220
1.4758080013944983e-75
230
1
0
ENDSEC
0
SECTION
2
OBJECTS
0
DICTIONARY
5
C
100
AcDbDictionary
3
ACAD_GROUP
350
D
3
ACAD_MLINESTYLE
350
17
0
DICTIONARY
5
D
100
AcDbDictionary
0
DICTIONARY
5
1A
330
C
100
AcDbDictionary
0
DICTIONARY
5
17
100
AcDbDictionary
0
ENDSEC
0
EOF
