0
SECTION
2
HEADER
9
$INSUNITS
70
4
9
$ACADVER
1
AC1014
9
$HANDSEED
5
FFFF
0
ENDSEC
0
SECTION
2
TABLES
0
TABLE
2
VPORT
5
8
100
AcDbSymbolTable
0
ENDTAB
0
TABLE
2
LTYPE
5
5
100
AcDbSymbolTable
0
LTYPE
5
14
100
AcDbSymbolTableRecord
100
AcDbLinetypeTableRecord
2
BYBLOCK
70
0
0
LTYPE
5
15
100
AcDbSymbolTableRecord
100
AcDbLinetypeTableRecord
2
BYLAYER
70
0
0
ENDTAB
0
TABLE
2
LAYER
5
2
100
AcDbSymbolTable
70
2
0
LAYER
5
50
100
AcDbSymbolTableRecord
100
AcDbLayerTableRecord
2
0
70
0
6
CONTINUOUS
0
ENDTAB
0
TABLE
2
STYLE
5
3
100
AcDbSymbolTable
70
1
0
STYLE
5
11
100
AcDbSymbolTableRecord
100
AcDbTextStyleTableRecord
2
STANDARD
70
0
0
ENDTAB
0
TABLE
2
VIEW
5
6
100
AcDbSymbolTable
70
0
0
ENDTAB
0
TABLE
2
UCS
5
7
100
AcDbSymbolTable
70
0
0
ENDTAB
0
TABLE
2
APPID
5
9
100
AcDbSymbolTable
70
2
0
APPID
5
12
100
AcDbSymbolTableRecord
100
AcDbRegAppTableRecord
2
ACAD
70
0
0
ENDTAB
0
TABLE
2
DIMSTYLE
5
A
100
AcDbSymbolTable
70
1
0
ENDTAB
0
TABLE
2
BLOCK_RECORD
5
1
100
AcDbSymbolTable
70
1
0
BLOCK_RECORD
5
1F
100
AcDbSymbolTableRecord
100
AcDbBlockTableRecord
2
*MODEL_SPACE
0
BLOCK_RECORD
5
1B
100
AcDbSymbolTableRecord
100
AcDbBlockTableRecord
2
*PAPER_SPACE
0
ENDTAB
0
ENDSEC
0
SECTION
2
BLOCKS
0
BLOCK
5
20
100
AcDbEntity
100
AcDbBlockBegin
2
*MODEL_SPACE
0
ENDBLK
5
21
100
AcDbEntity
100
AcDbBlockEnd
0
BLOCK
5
1C
100
AcDbEntity
100
AcDbBlockBegin
2
*PAPER_SPACE
0
ENDBLK
5
1D
100
AcDbEntity
100
AcDbBlockEnd
0
ENDSEC
0
SECTION
2
ENTITIES
0
SPLINE
5
100
100
AcDbEntity
8
0
100
AcDbSpline
70
0
71
3
72
10
73
6
74
0
42
0.000000001
43
0.0000000001
44
0.0000000001
40
-1.0286444753708768
40
-1.0286444753708768
40
-1.0286444753708768
40
-1.0286444753708768
40
-0.93093988278094653
40
-0.93093988278094653
40
0
40
0
40
0
40
0
10
-9.0947582825328617
20
24.002287338744253
30
0
10
-9.4079774472328488
20
23.949828255147473
30
0
10
-9.7297289809040848
20
23.895579377902351
30
0
10
-13.208318327743683
20
23.304986274673961
30
0
10
-16.56678323960741
20
22.69932321894974
30
8.8817841970012523e-15
10
-19.617279172249795
20
22.130193511061286
30
0
0
SPLINE
5
101
100
AcDbEntity
8
0
100
AcDbSpline
70
0
71
3
72
16
73
12
74
0
42
0.000000001
43
0.0000000001
44
0.0000000001
40
0
40
0
40
0
40
0
40
0.058596671008039121
40
0.058596671008039121
40
0.11719334201607823
40
0.11719334201607823
40
0.17579001302411704
40
0.17579001302411704
40
0.22833622835972753
40
0.22833622835972753
40
0.28088244369533755
40
0.28088244369533755
40
0.28088244369533755
40
0.28088244369533755
10
-21.383012918838233
20
23.772179784488756
30
0
10
-21.404814797339512
20
23.578078124936983
30
0
10
-21.388495867709807
20
23.381573791371114
30
8.8817841970012523e-15
10
-21.281453479419177
20
23.005881055619156
30
8.8817841970012523e-15
10
-21.191753404332914
20
22.830284480755225
30
8.8817841970012523e-15
10
-20.950093388787412
20
22.523358526371602
30
8.8817841970012523e-15
10
-20.800443849791669
20
22.394963526263396
30
8.8817841970012523e-15
10
-20.477910594222163
20
22.212686322853816
30
8.8817841970012523e-15
10
-20.311500598133087
20
22.15388020605069
30
8.8817841970012523e-15
10
-19.965948687564357
20
22.096350704093272
30
0
10
-19.789462166148599
20
22.098069404298069
30
0
10
-19.617279172249791
20
22.130193511061297
30
0
0
ARC
5
102
100
AcDbEntity
8
0
100
AcDbCircle
10
-32.314273441009689
20
25.000000372527719
30
-9.7215080962534184e-44
40
10.999999999999845
210
-1.4233168139972956e-33
220
-1.2671759254455947e-32
230
1
100
AcDbArc
50
-6.4087129838210863
51
6.3319192927680952
0
SPLINE
5
103
100
AcDbEntity
8
0
100
AcDbSpline
70
0
71
3
72
16
73
12
74
0
42
0.000000001
43
0.0000000001
44
0.0000000001
40
0
40
0
40
0
40
0
40
0.058596671008039287
40
0.058596671008039287
40
0.11719334201607871
40
0.11719334201607871
40
0.17579001302411773
40
0.17579001302411773
40
0.22838623526708501
40
0.22838623526708501
40
0.2809824575100528
40
0.2809824575100528
40
0.2809824575100528
40
0.2809824575100528
10
-19.612468719287847
20
27.852603168603491
30
0
10
-19.804405691574406
20
27.888810554816903
30
0
10
-20.001579749452194
20
27.887182219952393
30
0
10
-20.384205363435672
20
27.808437416241176
30
8.8817841970012523e-15
10
-20.565998810124601
20
27.732073790637198
30
8.8817841970012523e-15
10
-20.890081766910164
20
27.513960650939286
30
0
10
-21.029272867301067
20
27.374296417341721
30
0
10
-21.235173713778725
20
27.066106446394684
30
0
10
-21.306260485177827
20
26.904374146538849
30
0
10
-21.389349920225683
20
26.56371949088896
30
0
10
-21.40071286503591
20
26.38741988972706
30
0
10
-21.381377086535252
20
26.213168663539399
30
0
0
SPLINE
5
104
100
AcDbEntity
8
0
100
AcDbSpline
70
0
71
3
72
8
73
4
74
0
42
0.000000001
43
0.0000000001
44
0.0000000001
40
-0.65375164098047833
40
-0.65375164098047833
40
-0.65375164098047833
40
-0.65375164098047833
40
-0.34126401924983729
40
-0.34126401924983729
40
-0.34126401924983729
40
-0.34126401924983729
10
-19.612468719287847
20
27.852603168603491
30
0
10
-16.11909549088444
20
27.19360603969411
30
8.8817841970012523e-15
10
-12.621883714680456
20
26.560462946416269
30
0
10
-9.0961424159353896
20
25.975044062528255
30
0
0
SPLINE
5
105
100
AcDbEntity
8
0
100
AcDbSpline
70
0
71
3
72
22
73
18
74
0
42
0.000000001
43
0.0000000001
44
0.0000000001
40
0
40
0
40
0
40
0
40
0.03906444733869268
40
0.03906444733869268
40
0.078128894677385485
40
0.078128894677385485
40
0.11719334201607851
40
0.11719334201607851
40
0.15625778935477108
40
0.15625778935477108
40
0.1953222366934641
40
0.1953222366934641
40
0.23438668403215687
40
0.23438668403215687
40
0.25814443477082938
40
0.25814443477082938
40
0.28190218550950213
40
0.28190218550950213
40
0.28190218550950213
40
0.28190218550950213
10
-9.0947582825328617
20
24.002287338744253
30
0
10
-8.9663322254713798
20
24.023796601339491
30
0
10
-8.8433352287927427
20
24.070184688375839
30
0
10
-8.6220456204564897
20
24.207496418688244
30
0
10
-8.525868658066722
20
24.297107286981849
30
0
10
-8.3732774424826122
20
24.508151175700675
30
0
10
-8.3183220444778954
20
24.62756650152194
30
0
10
-8.2572782171750383
20
24.880740854858171
30
0
10
-8.2517734001373739
20
25.012079397564563
30
0
10
-8.2914176585784869
20
25.269473909572206
30
0
10
-8.3361877133387772
20
25.393069047047824
30
0
10
-8.4705837296663979
20
25.616141485583533
30
0
10
-8.5589247920661489
20
25.713486092547345
30
0
10
-8.7269971148521162
20
25.83839855342702
30
0
10
-8.7959447805471864
20
25.877920173314951
30
0
10
-8.9417133162344378
20
25.939866470932515
30
0
10
-9.0180195054194154
20
25.962072428138455
30
0
10
-9.0961424159354074
20
25.975044062528262
30
0
0
CIRCLE
5
106
100
AcDbEntity
8
0
100
AcDbCircle
10
-25.314278124821612
20
25.008098109280247
30
8.8817841970012523e-15
40
1.5000000000000004
210
8.7157639921085118e-32
220
-8.7157639921019826e-32
230
1
0
CIRCLE
5
107
100
AcDbEntity
8
0
100
AcDbCircle
10
-32.322371177762378
20
31.999995688716133
30
0
40
1.5000000000000036
210
-1.5688375185784872e-31
220
-1.2202069588953218e-31
230
1
0
CIRCLE
5
108
100
AcDbEntity
8
0
100
AcDbCircle
10
-39.314268757198228
20
24.991902635775215
30
0
40
1.5000000000000036
210
-1.5688375185784872e-31
220
-1.2202069588953218e-31
230
1
0
CIRCLE
5
109
100
AcDbEntity
8
0
100
AcDbCircle
10
2.6857265589902015
20
25.000000372527772
30
0
40
1.5000000000000013
210
2.2660986379482128e-31
220
-2.2660986379465154e-31
230
1
0
CIRCLE
5
110
100
AcDbEntity
8
0
100
AcDbCircle
10
-32.306175704257484
20
18.000005056339322
30
0
40
1.4999999999999958
210
-5.2294583952651062e-32
220
5.2294583952611891e-32
230
1
0
CIRCLE
5
111
100
AcDbEntity
8
0
100
AcDbCircle
10
-32.314273441009689
20
25.000000372527719
30
-9.7215080962534184e-44
40
2.7500000000000102
210
-1.9174680782628278e-31
220
-8.7157639921124289e-32
230
1
0
SPLINE
5
112
100
AcDbEntity
8
0
100
AcDbSpline
70
0
71
3
72
10
73
6
74
0
42
0.000000001
43
0.0000000001
44
0.0000000001
40
-3.2625468435728018
40
-3.2625468435728018
40
-3.2625468435728018
40
-3.2625468435728018
40
-1.6558145596517726
40
-1.6558145596517726
40
0
40
0
40
0
40
0
10
3.1857265589926556
20
21.031373405931198
30
0
10
-2.4123586310155338
20
20.326081142937934
30
8.8817841970012523e-15
10
-8.4142784956123577
20
19.326608794554858
30
8.8817841970012523e-15
10
-18.968486633216401
20
17.441840150919472
30
0
10
-24.90640488631113
20
16.305913618811612
30
8.8817841970012523e-15
10
-30.314273441009142
20
15.202041401395178
30
0
0
ARC
5
113
100
AcDbEntity
8
0
100
AcDbCircle
10
2.6857265589902015
20
25.000000372527772
30
0
40
3.9999999999999991
210
-1.6614580353801998e-31
220
-2.0932403692418481e-32
230
1
100
AcDbArc
50
-82.819244218506299
51
82.819244218577253
0
SPLINE
5
114
100
AcDbEntity
8
0
100
AcDbSpline
70
0
71
3
72
10
73
6
74
0
42
0.000000001
43
0.0000000001
44
0.0000000001
40
-3.4576459327087559
40
-3.4576459327087559
40
-3.4576459327087559
40
-3.4576459327087559
40
-1.7372440063834185
40
-1.7372440063834185
40
0
40
0
40
0
40
0
10
-30.314273441010538
20
34.797959343660601
30
0
10
-24.932420705851431
20
33.699397559886449
30
0
10
-19.046691840849391
20
32.551715292662713
30
0
10
-8.1318734255874929
20
30.596237381317394
30
0
10
-2.5596679773892705
20
29.692478794407634
30
0
10
3.1857265589877439
20
28.968627339124971
30
0
0
ARC
5
115
100
AcDbEntity
8
0
100
AcDbCircle
10
-32.314273441009689
20
25.000000372527719
30
-9.7215080962534184e-44
40
9.9999999999999929
210
1.3332916201168631e-31
220
-2.7215701230123125e-32
230
1
100
AcDbArc
50
78.463040967189471
51
281.53695903281869
0
ENDSEC
0
SECTION
2
OBJECTS
0
DICTIONARY
5
C
100
AcDbDictionary
3
ACAD_GROUP
350
D
3
ACAD_MLINESTYLE
350
17
0
DICTIONARY
5
D
100
AcDbDictionary
0
DICTIONARY
5
1A
330
C
100
AcDbDictionary
0
DICTIONARY
5
17
100
AcDbDictionary
0
ENDSEC
0
EOF
