0
SECTION
2
HEADER
9
$INSUNITS
70
4
9
$ACADVER
1
AC1014
9
$HANDSEED
5
FFFF
0
ENDSEC
0
SECTION
2
TABLES
0
TABLE
2
VPORT
5
8
100
AcDbSymbolTable
0
ENDTAB
0
TABLE
2
LTYPE
5
5
100
AcDbSymbolTable
0
LTYPE
5
14
100
AcDbSymbolTableRecord
100
AcDbLinetypeTableRecord
2
BYBLOCK
70
0
0
LTYPE
5
15
100
AcDbSymbolTableRecord
100
AcDbLinetypeTableRecord
2
BYLAYER
70
0
0
ENDTAB
0
TABLE
2
LAYER
5
2
100
AcDbSymbolTable
70
2
0
LAYER
5
50
100
AcDbSymbolTableRecord
100
AcDbLayerTableRecord
2
0
70
0
6
CONTINUOUS
0
ENDTAB
0
TABLE
2
STYLE
5
3
100
AcDbSymbolTable
70
1
0
STYLE
5
11
100
AcDbSymbolTableRecord
100
AcDbTextStyleTableRecord
2
STANDARD
70
0
0
ENDTAB
0
TABLE
2
VIEW
5
6
100
AcDbSymbolTable
70
0
0
ENDTAB
0
TABLE
2
UCS
5
7
100
AcDbSymbolTable
70
0
0
ENDTAB
0
TABLE
2
APPID
5
9
100
AcDbSymbolTable
70
2
0
APPID
5
12
100
AcDbSymbolTableRecord
100
AcDbRegAppTableRecord
2
ACAD
70
0
0
ENDTAB
0
TABLE
2
DIMSTYLE
5
A
100
AcDbSymbolTable
70
1
0
ENDTAB
0
TABLE
2
BLOCK_RECORD
5
1
100
AcDbSymbolTable
70
1
0
BLOCK_RECORD
5
1F
100
AcDbSymbolTableRecord
100
AcDbBlockTableRecord
2
*MODEL_SPACE
0
BLOCK_RECORD
5
1B
100
AcDbSymbolTableRecord
100
AcDbBlockTableRecord
2
*PAPER_SPACE
0
ENDTAB
0
ENDSEC
0
SECTION
2
BLOCKS
0
BLOCK
5
20
100
AcDbEntity
100
AcDbBlockBegin
2
*MODEL_SPACE
0
ENDBLK
5
21
100
AcDbEntity
100
AcDbBlockEnd
0
BLOCK
5
1C
100
AcDbEntity
100
AcDbBlockBegin
2
*PAPER_SPACE
0
ENDBLK
5
1D
100
AcDbEntity
100
AcDbBlockEnd
0
ENDSEC
0
SECTION
2
ENTITIES
0
CIRCLE
5
100
100
AcDbEntity
8
0
100
AcDbCircle
10
20.834219944914615
20
-104.49211656922427
30
0
40
1.9999999999999982
210
1.0097419586828991e-28
220
-5.8527457675670989e-59
230
1
0
CIRCLE
5
101
100
AcDbEntity
8
0
100
AcDbCircle
10
36.807580225241011
20
19.632487839391615
30
0
40
1.4999999999999991
210
-7.1399538623326176e-29
220
-7.1399538623326221e-29
230
1
0
CIRCLE
5
102
100
AcDbEntity
8
0
100
AcDbCircle
10
37.681785833048941
20
29.493307508936233
30
8.8817841970012523e-15
40
1.4999999999999991
210
-7.1399538623326176e-29
220
-7.1399538623326221e-29
230
1
0
CIRCLE
5
103
100
AcDbEntity
8
0
100
AcDbCircle
10
27.820966163504334
20
30.367513116744206
30
0
40
1.4999999999999991
210
-7.1399538623326176e-29
220
-7.1399538623326221e-29
230
1
0
CIRCLE
5
104
100
AcDbEntity
8
0
100
AcDbCircle
10
26.946760555696386
20
20.506693447199567
30
0
40
1.4999999999999991
210
-7.1399538623326176e-29
220
-7.1399538623326221e-29
230
1
0
CIRCLE
5
105
100
AcDbEntity
8
0
100
AcDbCircle
10
32.31427319437244
20
25.000000478067363
30
0
40
2.7500000000000027
210
-6.334379640144985e-44
220
-5.9250335978009839e-75
230
1
0
ARC
5
106
100
AcDbEntity
8
0
100
AcDbCircle
10
32.31427319437244
20
25.000000478067363
30
0
40
10.000000000000007
210
-1.89052676079019e-29
220
1.0181044535883391e-30
230
1
100
AcDbArc
50
-11.066280891861751
51
176.91743084284033
0
LINE
5
107
100
AcDbEntity
8
0
100
AcDbLine
10
22.328742431609044
20
25.537750778769983
30
-1.8932661725304279e-28
11
16.823494661082879
21
-76.689660154405885
31
0
0
ARC
5
108
100
AcDbEntity
8
0
100
AcDbCircle
10
-482.45304347709111
20
-49.802145119344175
30
8.8817841970012523e-15
40
500.00000000000006
210
-2.3456107118143192e-29
220
-9.9019737735580438e-29
230
1
100
AcDbArc
50
353.79825847405391
51
356.91743084284826
0
ARC
5
109
100
AcDbEntity
8
0
100
AcDbCircle
10
20.834219944914615
20
-104.49211656922427
30
0
40
6.2499999999999964
210
1.4127688257791259e-15
220
-1.5351925701791393e-16
230
1
100
AcDbArc
50
173.79825847405493
51
359.09679550152759
0
SPLINE
5
110
100
AcDbEntity
8
0
100
AcDbSpline
70
0
71
3
72
10
73
6
74
0
42
0.000000001
43
0.0000000001
44
0.0000000001
40
-4.0214752578831954
40
-4.0214752578831954
40
-4.0214752578831954
40
-4.0214752578831954
40
-2.0107376289415977
40
-2.0107376289415977
40
0
40
0
40
0
40
0
10
29.332698700122528
20
-64.451046449169652
30
0
10
28.688978339423151
20
-71.122521366217242
30
0
10
28.179468902025061
20
-77.806265463438081
30
0
10
27.429489758594045
20
-91.190186606762069
30
0
10
27.189095859852625
20
-97.889010816829085
30
0
10
27.083443397555193
20
-104.59063681570314
30
-8.8817841970012523e-15
0
SPLINE
5
111
100
AcDbEntity
8
0
100
AcDbSpline
70
0
71
3
72
10
73
6
74
0
42
0.000000001
43
0.0000000001
44
0.0000000001
40
-12.860863616927364
40
-12.860863616927364
40
-12.860863616927364
40
-12.860863616927364
40
-6.4077665726793507
40
-6.4077665726793507
40
-3.8131868215231663
40
-3.8131868215231663
40
-3.8131868215231663
40
-3.8131868215231663
10
42.128331145846943
20
23.080556145818043
30
0
10
37.996705486641993
20
1.9524385968594939
30
0
10
34.740441951878331
20
-18.267692236212124
30
0
10
31.066225579529998
20
-47.697378491753703
30
0
10
30.141843633630625
20
-56.065122284380998
30
0
10
29.332698700122606
20
-64.451046449168828
30
0
0
ENDSEC
0
SECTION
2
OBJECTS
0
DICTIONARY
5
C
100
AcDbDictionary
3
ACAD_GROUP
350
D
3
ACAD_MLINESTYLE
350
17
0
DICTIONARY
5
D
100
AcDbDictionary
0
DICTIONARY
5
1A
330
C
100
AcDbDictionary
0
DICTIONARY
5
17
100
AcDbDictionary
0
ENDSEC
0
EOF
